<svg width="38" height="38" viewBox="0 0 38 38" fill="none" xmlns="http://www.w3.org/2000/svg">
<path d="M18.9281 38C16.6225 38 14.3468 37.7326 12.146 37.0791C9.8554 36.3959 7.83425 35.1631 6.09756 33.5589C2.7739 30.4695 0.752748 26.6523 0.183832 22.1815C-0.519827 16.7007 0.782693 11.6804 4.33093 7.37296C7.47494 3.55572 11.5172 1.09011 16.4428 0.273192C21.8625 -0.617993 26.7732 0.674224 31.07 4.10528C34.8128 7.10561 37.0136 11.0268 37.7473 15.7055C38.6006 21.1715 37.2831 26.177 33.9445 30.618C31.7287 33.5738 28.8542 35.6978 25.3659 36.9603C23.5393 37.6287 21.638 37.9554 19.6917 38C19.4222 38 19.1826 38 18.9281 38ZM21.0091 20.1912C21.084 20.1466 21.1738 20.102 21.2337 20.0426C22.7159 18.5128 24.1831 16.9829 25.6802 15.4679C25.9198 15.2302 25.9647 15.0074 25.8899 14.6807C25.4407 12.7498 24.752 10.8931 24.0783 9.0365C24.0034 8.82856 23.8837 8.7543 23.6741 8.70974C21.6679 8.24929 19.6617 7.77399 17.6555 7.2987C17.431 7.23928 17.2663 7.26899 17.1016 7.44723C15.6344 8.87312 14.1672 10.299 12.685 11.7249C12.5503 11.8586 12.5353 11.9774 12.5802 12.1556C13.0743 14.146 13.5683 16.1214 14.0624 18.1117C14.1223 18.3642 14.257 18.5128 14.4966 18.5722C16.0236 18.9881 17.5657 19.4337 19.0928 19.8347C19.7216 19.9535 20.3654 20.0575 21.0091 20.1912ZM33.166 24.3797C33.0911 23.6816 33.0312 23.0727 32.9714 22.4637C32.8366 20.9784 32.7019 19.5079 32.5522 18.0226C32.5372 17.9186 32.4623 17.7701 32.3725 17.7256C30.7406 16.9383 29.0339 16.3294 27.2523 15.958C27.0726 15.9135 26.9528 15.958 26.8331 16.0917C25.2461 17.7256 23.6591 19.3445 22.0721 20.9635C21.9224 21.1121 21.8925 21.2457 21.9224 21.4388C22.2518 23.4143 22.5961 25.3897 22.641 27.3949C22.641 27.5731 22.7159 27.6623 22.8806 27.7217C24.5873 28.3306 26.309 28.9545 28.0158 29.5635C28.1206 29.5932 28.2853 29.5783 28.3601 29.5189C30.0819 28.0336 31.6988 26.4592 33.0462 24.6322C33.1061 24.5431 33.151 24.4243 33.166 24.3797ZM6.87608 11.7101C6.63654 11.814 6.39699 11.5764 6.21733 11.8586C5.06453 13.6113 3.91173 15.3639 2.75893 17.1314C2.71401 17.2057 2.68407 17.3245 2.69904 17.3988C3.22304 19.4931 3.76201 21.5725 4.31595 23.6519C4.33093 23.7262 4.4507 23.8302 4.54053 23.845C6.06762 24.0975 7.57974 24.3352 9.10683 24.5877C9.45117 24.6471 9.63083 24.5431 9.79552 24.2609C10.8136 22.5379 11.8466 20.8298 12.8647 19.1069C12.9395 18.9881 12.9245 18.795 12.8946 18.6613C12.4005 16.6413 11.8765 14.6361 11.3975 12.6161C11.3226 12.3042 11.2028 12.1705 10.8884 12.1408C9.52603 12.0071 8.19357 11.8586 6.87608 11.7101ZM27.7463 30.826C27.6565 30.7814 27.6116 30.7517 27.5667 30.7368C25.815 30.0982 24.0783 29.4595 22.3266 28.8208C22.2069 28.7762 22.0571 28.7911 21.9523 28.8208C21.084 29.0882 20.2007 29.3258 19.3323 29.6377C18.1795 30.0536 17.0417 30.514 15.9039 30.9745C15.6494 31.0785 15.4847 31.2567 15.4248 31.5538C15.1852 32.5044 15.0804 33.4847 15.0355 34.465C15.0206 34.7769 15.0804 34.9848 15.3948 35.1037C16.6524 35.5938 17.9101 36.0691 19.1677 36.5592C20.2157 36.9751 21.2786 37.0494 22.3865 36.8266C23.8238 36.5295 25.1263 35.9206 26.4139 35.2819C26.6833 35.1482 26.8181 34.97 26.878 34.7026C27.1624 33.4104 27.4469 32.133 27.7463 30.826ZM4.5555 25.1669C4.3459 26.4146 4.1363 27.6028 3.94167 28.7762C3.9267 28.8802 3.95664 29.0139 4.01653 29.1179C4.88487 30.6774 6.03768 31.9994 7.37014 33.1728C7.93905 33.6778 8.5978 33.96 9.36134 34.0045C9.8554 34.0342 10.3644 34.1382 10.8585 34.2125C11.8017 34.3461 12.7449 34.4947 13.6731 34.6432C13.8079 33.6926 13.8827 32.7569 14.0624 31.836C14.1672 31.2864 14.0774 30.8854 13.6881 30.4546C12.4305 29.0436 11.2178 27.6028 9.97517 26.1918C9.84043 26.0433 9.61586 25.9393 9.40626 25.8947C8.55288 25.7462 7.69951 25.6125 6.84614 25.4937C6.09756 25.3749 5.34899 25.2709 4.5555 25.1669ZM19.3323 1.10496C18.8233 1.14952 18.0598 1.19408 17.2962 1.29805C16.0087 1.47629 16.2332 1.32776 15.5745 2.51601C15.5595 2.54571 15.5296 2.57542 15.5296 2.59027C15.5296 2.66454 15.5146 2.75365 15.5595 2.79821C16.1434 3.79337 16.7123 4.78853 17.3112 5.76883C17.3711 5.8728 17.5058 5.97677 17.6256 6.00648C19.7965 6.51148 21.9673 7.00163 24.1382 7.52149C24.5125 7.61061 24.8568 7.61061 25.2012 7.46208C26.309 6.92737 27.4319 6.40751 28.5398 5.85795C28.6147 5.81339 28.6895 5.67971 28.6895 5.59059C28.6596 5.01132 28.5997 4.43205 28.5398 3.85278C28.5248 3.74881 28.435 3.61513 28.3302 3.57057C27.926 3.34778 27.4918 3.15469 27.0726 2.9616C24.7071 1.80306 22.2218 1.17923 19.3323 1.10496ZM35.6812 24.6916C35.801 24.3055 35.9058 23.9638 36.0106 23.6222C36.5196 21.929 36.7891 20.206 36.7741 18.4534C36.7442 16.4779 36.3549 14.5767 35.6512 12.7201C35.4566 12.2151 35.4716 12.2299 34.9326 12.2893C34.6931 12.319 34.6032 12.4082 34.5583 12.6458C34.3338 13.8935 34.0643 15.1411 33.8547 16.4036C33.7648 16.9086 33.69 17.4433 33.705 17.9632C33.7199 18.6316 33.8247 19.2851 33.8996 19.9535C34.0493 21.2309 34.184 22.5082 34.3487 23.7708C34.3637 23.8599 34.4086 23.9787 34.4835 24.0233C34.8578 24.2312 35.247 24.454 35.6812 24.6916ZM1.20189 16.7155C1.2468 16.7601 1.29172 16.8047 1.33664 16.8344C1.54624 16.7304 1.84566 16.7007 1.96543 16.5373C3.16315 14.7401 4.3459 12.9132 5.52865 11.1011C5.58854 11.012 5.63344 10.8783 5.63344 10.7743C5.73824 9.4821 6.02271 8.23444 6.65151 7.0759C6.83117 6.74913 6.99585 6.40751 7.19048 6.06589C6.84614 6.08074 6.78625 6.14016 6.36705 6.57089C4.39081 8.57606 2.93858 10.8783 2.11515 13.5667C1.78577 14.6064 1.50132 15.661 1.20189 16.7155ZM29.9172 4.59544C29.9172 5.02618 29.9022 5.45691 29.9321 5.90251C29.9471 6.05104 30.0369 6.21442 30.1417 6.31839C31.4293 7.64032 32.7318 8.94739 34.0343 10.2693C34.3787 10.6258 34.3787 10.6406 34.8727 10.4475C34.1391 8.47209 31.8934 5.84309 29.9172 4.59544ZM14.5714 1.77335C12.7299 2.07041 9.24157 3.77852 8.52294 4.75882C8.77746 4.65485 9.00202 4.55088 9.2266 4.46176C10.7237 3.83793 12.2059 3.18439 13.718 2.60512C14.1372 2.44174 14.4217 2.21894 14.5714 1.77335Z" fill="#667C85"/>
</svg>
