<svg width="40" height="39" viewBox="0 0 40 39" fill="none" xmlns="http://www.w3.org/2000/svg">
<path d="M39.9937 19.1193C40.2695 29.6983 31.4888 38.7084 20.6087 38.9923C9.5753 39.2911 0.41147 30.8937 0.0130428 20.1951C-0.385384 9.27248 8.39533 0.337124 19.3674 0.00839872C30.554 -0.305385 39.7025 8.2116 39.9937 19.1193ZM38.1548 23.9904C36.3159 22.9744 34.4617 22.1525 32.5002 21.5698C30.4008 20.9422 28.3627 20.2101 26.4778 19.1193C23.8727 17.5952 21.6201 15.6976 20.0263 13.1574C19.49 12.3057 19.1222 11.3644 18.6318 10.3931C17.8656 10.6173 17.0075 10.8414 16.1647 11.0954C16.0727 11.1253 15.9808 11.3046 15.9808 11.3943C16.0114 11.977 16.0727 12.5597 16.134 13.1425C16.5478 16.5941 17.5745 19.8664 19.2601 22.9445C21.4515 26.9639 24.5163 30.2661 28.1941 33.0901C28.8377 33.5832 29.4966 34.0464 30.1556 34.5246C34.1858 31.9247 36.8369 28.4432 38.1548 23.9904ZM14.7395 11.977C14.1572 12.231 13.6362 12.4551 13.1305 12.7241C13.0385 12.7689 12.9772 12.9632 12.9926 13.0827C13.0692 13.7402 13.2071 14.3976 13.2378 15.07C13.345 17.147 12.9619 19.1641 12.3336 21.1514C11.69 23.1537 11.0771 25.1559 10.9545 27.2627C10.7706 30.4753 11.3376 33.5384 13.0539 36.3475C13.1611 36.5268 13.3757 36.6912 13.5749 36.7659C18.6931 38.544 23.1984 38.036 29.1595 35.5257C21.2063 30.0121 15.6437 22.1227 14.7395 11.977ZM20.2409 10.2437C20.624 11.6034 21.2676 12.7092 22.0798 13.7252C24.455 16.6838 27.5352 18.6412 31.1363 19.9112C32.7913 20.494 34.4463 21.0468 36.0707 21.6744C36.8982 21.9882 37.6797 22.4215 38.4919 22.81C38.5072 22.7353 38.5226 22.6755 38.5379 22.6008C38.5532 22.541 38.5685 22.4663 38.5839 22.4066C38.9823 19.5825 38.7831 16.8033 37.9096 14.0838C37.8023 13.7551 37.6338 13.5609 37.3273 13.3965C32.9599 10.9609 28.2707 9.84028 23.2444 10.0196C22.2637 10.0345 21.2829 10.1541 20.2409 10.2437ZM10.9851 35.5406C10.9085 35.3165 10.8625 35.197 10.8165 35.0774C9.98904 33.0154 9.60594 30.8638 9.5753 28.6524C9.52932 26.1421 10.0044 23.7215 10.8012 21.3457C11.4755 19.3136 11.9659 17.2515 11.9199 15.0999C11.9046 14.5171 11.8279 13.9494 11.782 13.3367C11.6441 13.3816 11.6134 13.3965 11.5828 13.4114C7.47589 15.9516 4.3038 19.3285 2.09712 23.5422C2.0205 23.6916 1.98986 23.9307 2.03583 24.095C3.33838 28.7569 6.08139 32.4178 10.2189 35.0774C10.4488 35.2119 10.6633 35.3464 10.9851 35.5406ZM36.6837 11.4839C36.3925 10.9908 36.1167 10.4977 35.7949 10.0196C32.9752 5.85075 29.0982 3.13129 24.1179 1.90604C23.9953 1.87616 23.8114 1.90604 23.7195 1.98075C22.325 3.25083 21.1297 4.67033 20.4707 6.44843C20.1643 7.28519 19.9804 8.15183 20.0417 9.09318C25.8342 8.24148 31.3509 9.07824 36.6837 11.4839ZM11.2303 12.1563C11.1077 11.9322 11.0158 11.7379 10.9085 11.5586C9.78983 9.7058 8.05821 8.71963 5.98945 8.16677C5.68297 8.09206 5.5144 8.13689 5.31519 8.3909C2.5875 11.977 1.28495 15.9815 1.42286 20.4492C1.43819 20.7928 1.46884 21.1514 1.48416 21.4951C4.01264 17.655 7.21538 14.5321 11.2303 12.1563ZM15.6743 1.92098C12.211 2.80257 9.20752 4.49102 6.63306 7.06106C9.28414 7.88287 11.3069 9.31731 12.5175 11.7379C13.2071 11.4391 13.866 11.1253 14.5556 10.8563C14.8008 10.7517 14.8621 10.6322 14.8621 10.3931C14.8774 9.39202 14.8774 8.40584 14.9694 7.40472C15.1533 5.59673 15.4291 3.7738 15.6743 1.92098ZM16.1187 10.1541C16.9768 9.92993 17.7124 9.72075 18.4633 9.54144C18.6931 9.48167 18.7391 9.39202 18.7544 9.16789C18.8004 8.46561 18.8157 7.74839 18.969 7.076C19.3981 5.04388 20.5167 3.37036 21.9112 1.84627C22.0032 1.75662 22.0798 1.65203 22.187 1.51755C20.6087 1.35319 19.1069 1.36813 17.6051 1.54743C17.2833 1.57732 17.1761 1.71179 17.1301 1.99569C16.8696 3.51979 16.5631 5.02893 16.3639 6.55303C16.2106 7.71851 16.1953 8.91387 16.1187 10.1541Z" fill="#667C85"/>
</svg>
