<svg width="38" height="38" viewBox="0 0 38 38" fill="none" xmlns="http://www.w3.org/2000/svg">
<path d="M18.9704 38C8.46908 37.9414 -0.201483 29.475 0.00356373 18.5917C0.193965 8.42607 8.48373 -0.201487 19.4245 0.00358235C29.6036 0.194004 38.2156 8.49931 37.9959 19.4266C37.7908 29.6654 29.5157 37.9414 18.9704 38ZM21.8118 32.6682C21.431 32.6535 21.0502 32.6682 20.684 32.6096C20.2593 32.5364 19.981 32.1555 20.025 31.7747C20.0689 31.3645 20.4204 31.0569 20.8451 31.0423C21.1088 31.0276 21.3578 31.0276 21.6214 31.0423C21.7972 31.0569 21.8704 30.9837 21.885 30.8079C22.0315 29.724 22.1926 28.6547 22.3244 27.5708C22.3391 27.4975 22.2365 27.3803 22.1633 27.351C21.8997 27.2632 21.6214 27.2046 21.3578 27.1167C20.9184 26.9702 20.684 26.5747 20.8012 26.1499C20.9184 25.7251 21.3138 25.4908 21.7679 25.5933C22.0461 25.6519 22.3098 25.7251 22.5734 25.7984C22.7345 25.8423 22.8077 25.7984 22.881 25.6519C23.2471 24.7584 23.6279 23.8649 24.0087 22.9713C24.082 22.7956 24.038 22.7077 23.8916 22.6344C23.6719 22.5173 23.4522 22.4001 23.2471 22.2536C22.8517 21.9899 22.7492 21.5652 22.9835 21.1843C23.2032 20.8181 23.6572 20.7009 24.0673 20.9207C24.2431 21.0232 24.4335 21.1111 24.5946 21.2283C24.8143 21.3894 24.9461 21.3601 25.1072 21.1257C25.6491 20.3787 26.2203 19.6609 26.7915 18.9432C26.9233 18.7821 26.9233 18.6942 26.7769 18.5624C26.5865 18.3866 26.3961 18.1815 26.2057 17.9911C25.8542 17.6395 25.8542 17.1562 26.1764 16.8339C26.4839 16.5263 26.9526 16.5263 27.3041 16.8632C27.5092 17.0536 27.6996 17.2441 27.89 17.4491C28.0072 17.5663 28.095 17.5663 28.2268 17.4638C29.091 16.79 29.9551 16.1308 30.8339 15.4717C30.9803 15.3691 30.9803 15.2666 30.8925 15.1348C30.746 14.9004 30.6142 14.6514 30.4824 14.4024C30.2627 13.9922 30.3945 13.5382 30.7606 13.3184C31.1268 13.0987 31.5955 13.2159 31.8445 13.6114C31.9616 13.8018 32.0788 14.0069 32.1813 14.1973C32.3864 14.5635 32.3864 14.5489 32.7672 14.3877C33.6167 14.0362 34.4808 13.6846 35.3449 13.3624C35.7697 13.2013 35.7843 13.2159 35.6232 12.7911C34.6273 10.1545 33.1187 7.86945 31.0389 5.93594C29.1203 4.16356 26.9233 2.90385 24.4481 2.06892C22.2951 1.35118 20.0835 1.11682 17.8427 1.24865C17.1836 1.27794 16.5099 1.40977 15.8508 1.48301C15.6897 1.49766 15.5579 1.5416 15.6018 1.77597C15.7629 2.78667 15.9094 3.81201 16.0558 4.82271C16.0851 4.98384 16.1437 5.08637 16.3341 5.07172C16.5685 5.05708 16.8028 5.05708 17.0518 5.07172C17.5351 5.10102 17.9013 5.46722 17.9013 5.892C17.8866 6.33144 17.5205 6.68298 17.0371 6.68298C16.8174 6.68298 16.5831 6.69763 16.3634 6.68298C16.173 6.66834 16.1291 6.75622 16.1144 6.932C15.9826 7.98664 15.8508 9.05593 15.7043 10.1106C15.675 10.301 15.675 10.4328 15.9094 10.4621C16.1291 10.4914 16.3488 10.5793 16.5685 10.6379C17.0811 10.7844 17.3447 11.1945 17.2275 11.6632C17.1104 12.088 16.671 12.3077 16.1876 12.1906C15.9533 12.132 15.7043 12.0734 15.47 12.0001C15.3089 11.9415 15.221 12.0001 15.1624 12.1613C14.7963 13.0548 14.4301 13.9483 14.0493 14.8418C13.9907 14.9883 13.9907 15.0908 14.1518 15.1787C14.3569 15.2812 14.5473 15.3984 14.7377 15.5156C15.1038 15.75 15.221 16.2041 15.0013 16.5703C14.7816 16.9364 14.3569 17.0829 13.9614 16.8925C13.771 16.8046 13.5953 16.7021 13.4195 16.5849C13.2438 16.4677 13.1266 16.4824 12.9948 16.6728C12.4382 17.4491 11.8524 18.2108 11.2665 18.9725C11.1493 19.119 11.164 19.2215 11.2958 19.3387C11.4716 19.5145 11.662 19.6756 11.8231 19.866C12.116 20.2029 12.1014 20.6277 11.8084 20.9207C11.5155 21.2283 11.0468 21.2429 10.7246 20.9499C10.5489 20.8035 10.3877 20.6423 10.2413 20.4666C10.1095 20.3201 10.0069 20.3054 9.83119 20.4373C8.99635 21.0964 8.14687 21.7556 7.28274 22.4001C7.15092 22.5026 7.12163 22.5905 7.20951 22.737C7.34133 22.9567 7.47314 23.1764 7.59031 23.4108C7.81 23.8356 7.67819 24.275 7.26809 24.4947C6.90194 24.6998 6.46255 24.568 6.22821 24.1871C6.0964 23.982 5.97923 23.777 5.8767 23.5719C5.77418 23.3815 5.67166 23.3522 5.46661 23.4401C4.5146 23.8502 3.5626 24.2311 2.61059 24.6119C2.21514 24.773 2.2005 24.7437 2.34696 25.1392C3.63583 28.5668 5.74489 31.4085 8.77666 33.4885C12.7165 36.213 17.0811 37.2383 21.8264 36.5059C22.4416 36.418 22.4416 36.5059 22.2805 35.8468C22.2658 35.7882 22.2512 35.7296 22.2512 35.671C22.1047 34.6896 21.9583 33.6935 21.8118 32.6682ZM23.6133 36.169C23.8476 36.1104 24.038 36.0665 24.2284 35.9932C27.2163 34.9679 29.794 33.342 31.9323 31.013C33.7045 29.0795 34.9788 26.8677 35.799 24.3922C36.4873 22.3268 36.7949 20.2029 36.6924 18.0057C36.6484 16.8779 36.4873 15.7793 36.253 14.6953C36.1944 14.4463 36.1065 14.4024 35.8868 14.4903C35.0227 14.8272 34.1586 15.1787 33.2944 15.5156C33.1187 15.5889 33.1187 15.6914 33.2066 15.8379C33.3384 16.0429 33.4556 16.248 33.5727 16.4677C33.7924 16.8632 33.6606 17.3466 33.2798 17.581C32.9136 17.8007 32.4596 17.6981 32.196 17.3173C32.0495 17.1122 31.9323 16.8925 31.8152 16.6581C31.7273 16.4824 31.6248 16.4238 31.449 16.5556C30.7606 17.0683 30.043 17.5663 29.3693 18.1083C28.9592 18.4305 28.9738 18.4598 29.34 18.826C29.4278 18.9139 29.5157 19.0018 29.6036 19.0897C29.999 19.4852 30.0137 19.9832 29.6622 20.3201C29.3253 20.657 28.842 20.6131 28.4612 20.2322C28.2561 20.0418 28.0657 19.8367 27.7875 19.5731C27.2016 20.364 26.6451 21.1111 26.1031 21.8581C26.0739 21.9021 26.1178 22.0632 26.1764 22.0925C26.4254 22.2536 26.689 22.3854 26.938 22.5466C27.3481 22.8102 27.4799 23.235 27.2602 23.6305C27.0405 24.026 26.5718 24.1578 26.1324 23.9381C25.8835 23.8063 25.6345 23.6598 25.3855 23.5133C25.2244 23.4254 25.1365 23.4547 25.0633 23.6159C24.741 24.3922 24.4042 25.1685 24.082 25.9449C24.0087 26.106 24.0673 26.1939 24.2431 26.2378C24.4774 26.2964 24.7118 26.355 24.9461 26.4282C25.4148 26.5601 25.6931 26.9995 25.5759 27.4096C25.4441 27.8784 25.034 28.1127 24.5506 27.9955C24.3163 27.937 24.082 27.8784 23.8476 27.8051C23.6279 27.7319 23.5401 27.8051 23.5108 28.0248C23.4229 28.6108 23.2911 29.182 23.2178 29.7679C23.1593 30.1781 23.1593 30.6029 23.13 31.0569C23.4668 31.0569 23.7305 31.0569 24.0087 31.0569C24.5799 31.0569 24.9754 31.3938 24.99 31.8772C24.99 32.3459 24.5799 32.6975 24.0234 32.7121C23.7451 32.7121 23.4522 32.7121 23.1446 32.7121C23.1446 33.8986 23.335 35.0118 23.6133 36.169ZM9.1721 19.4119C8.86453 19.1336 8.57161 18.8993 8.32262 18.6356C7.98576 18.2987 7.98576 17.8153 8.29333 17.4931C8.63019 17.1415 9.06958 17.1415 9.45038 17.4784C9.67008 17.6835 9.87512 17.8886 10.0802 18.1083C10.212 18.2548 10.3292 18.2548 10.4463 18.0936C10.9589 17.4198 11.4569 16.7314 11.9695 16.0576C12.1014 15.8818 12.0428 15.7793 11.867 15.6914C11.5887 15.5449 11.3251 15.3838 11.0615 15.2373C10.6367 14.9736 10.5049 14.5196 10.7246 14.1241C10.9589 13.7139 11.413 13.5967 11.8524 13.8311C12.1453 13.9922 12.4236 14.1534 12.7018 14.3291C12.8337 14.417 12.9362 14.3877 13.0094 14.2413C13.3316 13.4503 13.6539 12.6593 13.9907 11.8683C14.0639 11.6925 13.9907 11.6193 13.8296 11.5754C13.5806 11.5168 13.3316 11.4582 13.0973 11.3849C12.6286 11.2385 12.365 10.8137 12.4822 10.3889C12.5993 9.94944 13.0241 9.70043 13.5074 9.81761C13.7271 9.86156 13.9468 9.92015 14.1518 9.99339C14.4155 10.0959 14.5473 10.008 14.5766 9.72973C14.6937 8.79227 14.8109 7.86946 14.9281 6.932C14.9574 6.75622 14.8695 6.68298 14.6937 6.68298C14.4155 6.68298 14.1372 6.68298 13.8735 6.68298C13.3756 6.66834 12.9948 6.30214 12.9948 5.86271C12.9948 5.42327 13.3756 5.04243 13.8589 5.02778C14.0932 5.01313 14.3276 5.01313 14.5619 5.02778C14.8256 5.04243 14.9281 4.95454 14.8988 4.69088C14.767 3.84131 14.6351 2.99174 14.518 2.15681C14.474 1.89315 14.3715 1.79062 14.0932 1.9078C12.9801 2.39118 11.8084 2.78667 10.7393 3.34328C8.2201 4.67623 6.15498 6.53651 4.54389 8.8948C2.72776 11.5461 1.6293 14.4756 1.35102 17.6835C1.18991 19.5877 1.29243 21.4919 1.73182 23.3668C1.7904 23.6159 1.89293 23.6598 2.11262 23.5719C3.02069 23.2057 3.91411 22.8542 4.82217 22.488C4.8954 22.4587 4.95399 22.4001 5.05651 22.3268C4.88076 22.0046 4.69036 21.7116 4.52925 21.404C4.30956 20.9792 4.44137 20.5252 4.82217 20.3054C5.20298 20.0857 5.67165 20.2029 5.92064 20.5984C6.0671 20.8328 6.21357 21.0671 6.33074 21.3161C6.43326 21.5212 6.55043 21.5359 6.72618 21.404C7.26809 20.9939 7.8393 20.5838 8.38121 20.159C8.61555 19.9246 8.84989 19.6902 9.1721 19.4119Z" fill="#667C85"/>
</svg>
