<svg width="18" height="21" viewBox="0 0 18 21" fill="none" xmlns="http://www.w3.org/2000/svg">
<path d="M7 19C7 20.11 7.9 21 9 21C9.53043 21 10.0391 20.7893 10.4142 20.4142C10.7893 20.0391 11 19.5304 11 19H7ZM15.88 14.82V9C15.88 5.75 13.63 3.03 10.59 2.31V1.59C10.59 1.16831 10.4225 0.763883 10.1243 0.4657C9.82612 0.167517 9.42169 0 9 0C8.57831 0 8.17388 0.167517 7.8757 0.4657C7.57752 0.763883 7.41 1.16831 7.41 1.59V2.31C4.37 3.03 2.12 5.75 2.12 9V14.82L0 16.94V18H18V16.94L15.88 14.82Z" fill="#263338"/>
</svg>
