<svg width="23" height="21" viewBox="0 0 23 21" fill="none" xmlns="http://www.w3.org/2000/svg">
<path d="M16.8575 3.16747C16.7611 3.16747 16.6647 3.16747 16.5771 3.16747C11.4848 3.16747 6.40134 3.16747 1.30909 3.16747C0.599155 3.16747 0.0645123 3.62627 0.00316048 4.29682C-0.00560379 4.42917 0.00316048 4.57916 0.0382195 4.71151C0.774446 7.79075 1.51068 10.8612 2.2469 13.9404C2.38714 14.5227 2.80784 14.8757 3.39507 14.9109C3.47395 14.9198 3.55283 14.9109 3.63172 14.9109C7.47939 14.9109 11.3271 14.9109 15.1747 14.9109C16.0337 14.9109 16.4105 14.6198 16.6209 13.7816C17.3659 10.8171 18.1021 7.85251 18.8471 4.89679C19.0399 4.12036 19.2327 3.34393 19.4256 2.56751C19.4606 2.40869 19.522 2.35575 19.6885 2.35575C20.3722 2.36458 21.0646 2.36458 21.7482 2.35575C22.4494 2.35575 22.9227 1.93225 22.984 1.2617C23.0454 0.679375 22.6071 0.105877 22.0287 0.0352922C21.7657 0 21.494 0 21.2223 0C20.4072 0 19.5833 0 18.7682 0C18.0057 0 17.585 0.335276 17.4009 1.06759C17.2344 1.74696 17.0591 2.41751 16.8926 3.09689C16.8838 3.11454 16.8751 3.12336 16.8575 3.16747Z" fill="#C6D4EE"/>
<path d="M11.7402 18.3435C11.7402 19.5082 12.678 20.4522 13.8262 20.4434C14.9743 20.4434 15.9121 19.4817 15.9034 18.3347C15.8946 17.1877 14.9656 16.2525 13.8174 16.2437C12.6692 16.2437 11.7314 17.1789 11.7402 18.3435Z" fill="#C6D4EE"/>
<path d="M3.55366 18.3519C3.55366 19.5077 4.50024 20.4606 5.6484 20.4518C6.80534 20.443 7.72562 19.4989 7.71686 18.3343C7.70809 17.1873 6.77904 16.252 5.63964 16.252C4.48271 16.2432 3.55366 17.1873 3.55366 18.3519Z" fill="#C6D4EE"/>
</svg>
