<svg width="23" height="21" viewBox="0 0 23 21" fill="none" xmlns="http://www.w3.org/2000/svg">
    <path d="M16.858 3.16747C16.7616 3.16747 16.6652 3.16747 16.5776 3.16747C11.4853 3.16747 6.40182 3.16747 1.30958 3.16747C0.599644 3.16747 0.0650005 3.62627 0.00364876 4.29682C-0.00511551 4.42917 0.00364876 4.57916 0.0387077 4.71151C0.774935 7.79075 1.51116 10.8612 2.24739 13.9404C2.38763 14.5227 2.80833 14.8757 3.39556 14.9109C3.47444 14.9198 3.55332 14.9109 3.6322 14.9109C7.47987 14.9109 11.3275 14.9109 15.1752 14.9109C16.0341 14.9109 16.411 14.6198 16.6214 13.7816C17.3664 10.8171 18.1026 7.85251 18.8476 4.89679C19.0404 4.12036 19.2332 3.34393 19.4261 2.56751C19.4611 2.40869 19.5225 2.35575 19.689 2.35575C20.3726 2.36458 21.065 2.36458 21.7487 2.35575C22.4499 2.35575 22.9231 1.93225 22.9845 1.2617C23.0458 0.679375 22.6076 0.105877 22.0292 0.0352922C21.7662 0 21.4945 0 21.2228 0C20.4077 0 19.5838 0 18.7687 0C18.0062 0 17.5855 0.335276 17.4014 1.06759C17.2349 1.74696 17.0596 2.41751 16.8931 3.09689C16.8843 3.11454 16.8756 3.12336 16.858 3.16747Z" fill="#C6D4EE"/>
    <path d="M11.741 18.344C11.741 19.5087 12.6789 20.4527 13.827 20.4439C14.9752 20.4439 15.913 19.4822 15.9042 18.3352C15.8955 17.1882 14.9664 16.253 13.8183 16.2441C12.6701 16.2441 11.7323 17.1794 11.741 18.344Z" fill="#C6D4EE"/>
    <path d="M3.55451 18.3519C3.55451 19.5077 4.50109 20.4606 5.64926 20.4518C6.80619 20.443 7.72648 19.4989 7.71771 18.3343C7.70895 17.1873 6.7799 16.252 5.64049 16.252C4.48356 16.2432 3.55451 17.1873 3.55451 18.3519Z" fill="#C6D4EE"/>
</svg>
