<svg width="25" height="31" viewBox="0 0 25 31" fill="none" xmlns="http://www.w3.org/2000/svg">
<path d="M17.3317 30.047H2.66528C1.20607 30.047 0 28.8558 0 27.3817V6.92309C0 5.46389 1.19119 4.25781 2.66528 4.25781H17.3317C18.7909 4.25781 19.997 5.449 19.997 6.92309V27.3817C19.997 28.8558 18.8058 30.047 17.3317 30.047ZM2.66528 5.40433C1.83145 5.40433 1.14652 6.08926 1.14652 6.92309V27.3817C1.14652 28.2155 1.83145 28.9005 2.66528 28.9005H17.3317C18.1656 28.9005 18.8505 28.2155 18.8505 27.3817V6.92309C18.8505 6.08926 18.1656 5.40433 17.3317 5.40433H2.66528Z" fill="#667C85"/>
<path d="M21.6049 25.7743H20.6073V24.6426H21.6049C22.4388 24.6426 23.1237 23.9577 23.1237 23.1239V2.66528C23.1237 1.83145 22.4388 1.14652 21.6049 1.14652H6.93847C6.10464 1.14652 5.41971 1.83145 5.41971 2.66528V3.58845H4.28809V2.66528C4.28809 1.20608 5.47927 0 6.95336 0H21.6198C23.079 0 24.2851 1.19119 24.2851 2.66528V23.1239C24.2702 24.5831 23.0641 25.7743 21.6049 25.7743Z" fill="#667C85"/>
</svg>
