<svg width="18" height="10" viewBox="0 0 18 10" fill="none" xmlns="http://www.w3.org/2000/svg">
<path d="M8.52309 10C6.38956 9.98788 4.5106 9.27266 2.83772 7.98769C1.75883 7.15125 0.837534 6.16934 0.0253377 5.09046C0.00109307 5.05409 -0.0110293 4.95711 0.0132154 4.92074C1.16484 3.39333 2.48617 2.04775 4.1833 1.11433C5.38341 0.447601 6.66838 0.0839308 8.05032 0.0111968C10.3414 -0.0979042 12.3538 0.593069 14.1721 1.96289C15.2752 2.79933 16.1965 3.80549 17.033 4.90862C17.0572 4.94499 17.0572 5.04197 17.033 5.07833C15.9056 6.55726 14.6327 7.87859 12.9962 8.79989C11.7355 9.51511 10.3899 9.92727 8.93525 9.97576C8.78978 9.97576 8.65644 9.98788 8.52309 10ZM12.0992 4.98135C12.0992 3.00541 10.4869 1.40527 8.51097 1.41739C6.53503 1.41739 4.93488 3.02966 4.94701 5.0056C4.94701 6.98154 6.55928 8.58169 8.53522 8.56956C10.5112 8.55744 12.0992 6.95729 12.0992 4.98135Z" fill="#263238"/>
<path d="M9.22676 4.26694C9.29949 4.26694 9.3601 4.27907 9.42072 4.27907C9.69953 4.27907 9.97834 4.27907 10.2572 4.27907C10.5723 4.27907 10.5723 4.27907 10.6208 4.58212C10.839 5.83072 10.0632 6.92173 8.80248 7.12781C7.62661 7.32177 6.45074 6.36411 6.39013 5.164C6.32952 3.98813 7.08111 3.04259 8.24485 2.885C8.52366 2.84863 8.82672 2.92136 9.10554 2.94561C9.20251 2.95773 9.22676 3.01834 9.22676 3.11532C9.22676 3.4305 9.22676 3.75781 9.22676 4.07299C9.22676 4.1336 9.22676 4.19421 9.22676 4.26694Z" fill="#263238"/>
</svg>
