<svg xmlns="http://www.w3.org/2000/svg" width="23.363" height="27.028" viewBox="0 0 23.363 27.028"><defs><style>.a{fill:#d6dadd;}</style></defs><g transform="translate(0)"><path class="a" d="M213.2,27.028a.792.792,0,0,1-.792-.792V.792a.792.792,0,0,1,1.584,0V26.236A.792.792,0,0,1,213.2,27.028Zm0,0" transform="translate(-201.194)"/><path class="a" d="M45.112,41.365a2.608,2.608,0,1,1,2.608-2.608A2.611,2.611,0,0,1,45.112,41.365Zm0,0" transform="translate(-40.26 -34.24)"/><path class="a" d="M9.636,158.86l-2.211-5.006a2.81,2.81,0,0,0-.383-.628,4.182,4.182,0,0,1-4.381,0,2.81,2.81,0,0,0-.383.628L.067,158.86a.792.792,0,0,0,.724,1.112h.63L.94,162.55a.791.791,0,0,0,.778.937H7.984a.791.791,0,0,0,.778-.937l-.481-2.579h.63a.792.792,0,0,0,.724-1.112Zm0,0" transform="translate(0 -145.138)"/><path class="a" d="M314.686,41.365a2.608,2.608,0,1,1,2.608-2.608A2.611,2.611,0,0,1,314.686,41.365Zm0,0" transform="translate(-295.604 -34.24)"/><path class="a" d="M290.783,142.042a2.942,2.942,0,0,0-.47-.382,4.182,4.182,0,0,1-5.858.066,2.9,2.9,0,0,0-1.226,2.36l-.012,4.875a.792.792,0,0,0,.792.794h.817l0,1.456a.792.792,0,0,0,.792.793h3.633a.792.792,0,0,0,.792-.79l0-1.459h.783a.792.792,0,0,0,.792-.79l.012-4.865A2.884,2.884,0,0,0,290.783,142.042Zm0,0" transform="translate(-268.268 -134.182)"/><path class="a" d="M44.082,377.609V382a.792.792,0,0,0,1.584,0v-4.4Zm0,0" transform="translate(-41.755 -357.676)"/><path class="a" d="M112.9,377.609V382a.792.792,0,1,0,1.583,0v-4.4Zm0,0" transform="translate(-106.938 -357.676)"/><path class="a" d="M383.261,365.163h-.792v4.923a.792.792,0,0,0,1.584,0v-5.059A2.361,2.361,0,0,1,383.261,365.163Zm0,0" transform="translate(-362.279 -345.758)"/><path class="a" d="M314.448,365.193a2.378,2.378,0,0,1-.792-.135v5.058a.792.792,0,1,0,1.584,0v-4.923Zm0,0" transform="translate(-297.099 -345.787)"/></g></svg>