<svg width="50" height="50" viewBox="0 0 50 50" fill="none" xmlns="http://www.w3.org/2000/svg">
<path d="M25 50C38.8071 50 50 38.8071 50 25C50 11.1929 38.8071 0 25 0C11.1929 0 0 11.1929 0 25C0 38.8071 11.1929 50 25 50Z" fill="#F9FAFC"/>
<path d="M40.6787 5C39.6699 7.65322 38.6611 10.3214 37.6523 12.9746C35.6648 18.2214 33.6773 23.4831 31.6898 28.7299C31.1327 30.2205 30.1239 30.9062 28.5128 30.9211C27.8352 30.9211 27.1577 30.9211 26.4801 30.9211C23.9656 30.9211 21.4361 30.8913 18.9216 30.936C16.919 30.9807 15.579 32.8737 16.121 34.7817C16.3017 35.4226 16.5275 36.0636 16.7383 36.6896C17.2503 38.2398 18.2892 39 19.9304 39C21.7221 39 23.5139 39 25.3057 39C27.0673 39 28.844 39 30.6057 39C32.9244 39 34.7614 37.733 35.5443 35.5568C37.6372 29.7286 39.7301 23.9154 41.823 18.0872C42.877 15.1359 43.946 12.1995 45 9.24814C43.7503 7.68303 42.2898 6.23718 40.6787 5Z" fill="#667C85"/>
<path d="M20.343 17C22.4809 17.0734 24.4315 17.1762 26.3198 17.749C26.9752 17.9547 27.6306 18.2337 28.1924 18.6156C29.2848 19.3646 29.2535 20.6424 28.1924 21.4208C27.3497 22.0376 26.3666 22.3313 25.3366 22.5223C21.763 23.1979 18.1894 23.1979 14.6627 22.2579C14.0384 22.0964 13.4142 21.8026 12.8837 21.4501C11.6977 20.657 11.7133 19.3352 12.8837 18.5274C13.8356 17.8665 14.9592 17.6022 16.0983 17.3965C16.6913 17.2937 17.2999 17.2056 17.9085 17.1616C18.7824 17.0881 19.6407 17.0587 20.343 17Z" fill="#667C85"/>
<path d="M28.9238 23C29.1115 23.62 28.9395 24.2046 28.5484 24.7184C28.0791 25.3561 27.4377 25.7459 26.7495 25.9939C24.4343 26.8797 22.0409 27.0568 19.6162 26.9859C17.8799 26.9328 16.1591 26.7202 14.501 26.1002C13.7032 25.799 12.9367 25.427 12.3892 24.6652C12.0294 24.1515 11.9042 23.5846 12.0763 23C17.7078 25.179 23.2767 25.179 28.9238 23Z" fill="#667C85"/>
</svg>
