<svg width="23" height="24" viewBox="0 0 23 24" fill="none" xmlns="http://www.w3.org/2000/svg">
<path d="M0.20276 23.9912C0.0881564 23.9912 0 23.9032 0 23.7887V23.7359C0 18.744 0 13.9194 0 8.9275C0 8.68099 0 8.49611 0.299732 8.276C4.01993 5.49393 7.35224 2.99359 11.0636 0.202712C11.4515 -0.0878208 11.6278 -0.0438007 11.9187 0.193908L22.6915 8.2672C23 8.50491 23 8.67219 23 8.81305C23 13.849 23 23.3573 23 23.3573C23 23.7271 22.8237 24 22.4446 24H15.2687C14.9866 24 14.8896 23.8151 14.8896 23.6214C14.8808 22.9435 14.8896 18.7088 14.8896 17.6083C14.8896 15.7682 14.1667 14.342 12.386 13.8842C11.0019 13.532 9.8647 13.981 8.88616 15.2312C8.34841 15.9179 8.10157 16.7015 8.11039 17.5643C8.11039 18.6736 8.11039 22.9435 8.11039 23.6214C8.11039 23.7535 8.0046 24 7.73131 24H0.20276V23.9912Z" fill="#C6D4EE"/>
</svg>
