<svg xmlns="http://www.w3.org/2000/svg" width="211.751" height="45" viewBox="0 0 211.751 45"><defs><style>.a{fill:#fefdfd;}.b{fill:#fefdfb;}.c{fill:#fefcfb;}.d{fill:#fefdfc;}.e{fill:#fefcfa;}</style></defs><g transform="translate(0.002 0.002)"><g transform="translate(-0.002 -0.002)"><path class="a" d="M13.2,34.472c2.738.331,4.908-1.063,7.139-2.246,2.846-1.518,5.676-3.067,8.511-4.607.679-.374.681-.457.06-.872a2.884,2.884,0,0,0-2.9-.277c-2.713,1.145-5.341,2.487-8.108,3.512a14.527,14.527,0,0,1-2.552.749,4.371,4.371,0,0,1-3.93-1.2,2.6,2.6,0,0,1-.412-3.578c.687-1.076,1.607-1.963,2.392-2.962a4.443,4.443,0,0,0,.966-3.565c-.043-.268-.026-.619-.348-.7s-.406.255-.561.43A24.443,24.443,0,0,1,5.579,24.93c-1.08.5-1.093.5-1.763-.477C2,21.818.414,19.041.086,15.8-.829,6.752,5.457-.619,14.748.045A11.638,11.638,0,0,1,22.712,4.22c.288.322.561.657.831.994.647.81.653.812,1.291-.032A12.949,12.949,0,0,1,47.1,7.858c.056.131.165.26.043.483-1.948-.374-3.909-.749-5.882-1.091A29.38,29.38,0,0,0,36.68,6.54a7.788,7.788,0,0,0-3.614.8c-3.982,1.98-7.86,4.152-11.758,6.288a1.469,1.469,0,0,0-.226.187,2.761,2.761,0,0,0,3.387.771c2.246-.956,4.457-1.978,6.7-2.94a17.972,17.972,0,0,1,4.044-1.331,4.316,4.316,0,0,1,4.016,1.351,2.534,2.534,0,0,1,.318,3.344,23.558,23.558,0,0,1-2.2,2.725,4.706,4.706,0,0,0-1.235,3.789c.037.3.041.685.348.793s.445-.269.621-.464a25.326,25.326,0,0,1,7.128-5.4,21.2,21.2,0,0,1,3.531-1.179c.483-.152.644-.032.561.479a17.935,17.935,0,0,1-.855,3.391,29.757,29.757,0,0,1-6.424,9.817c-3.447,3.778-7.3,7.147-11,10.655-1.735,1.641-3.436,3.316-5.133,5-.5.492-.893.546-1.4.009-3.091-3.262-6.435-6.276-9.7-9.366-.213-.2-.455-.374-.683-.561C13.135,34.618,13.167,34.546,13.2,34.472ZM39.483,12.923a6.041,6.041,0,0,0-3.015-.472c-3.262.6-5.928,2.433-8.6,4.231-.468.316-.3.561.165.715a3.625,3.625,0,0,0,3.123-.238C33.834,15.6,36.182,13.348,39.483,12.923ZM11.531,28.068a5.315,5.315,0,0,0,3.415.342,24.1,24.1,0,0,0,8.118-4.063,1.467,1.467,0,0,0,.17-.153c.223-.206.232-.415-.069-.518a3.255,3.255,0,0,0-2.929-.052c-1.063.646-2.113,1.31-3.181,1.963C15.343,26.646,13.68,27.866,11.531,28.068Zm1.029,1.409a1.439,1.439,0,0,0,1.04.395A7.594,7.594,0,0,0,17.43,29.5c2.936-1.143,5.771-2.513,8.6-3.9a2.217,2.217,0,0,0,.324-.2c.161-.118.391-.215.374-.447s-.271-.292-.46-.341a3.45,3.45,0,0,0-2.663.168c-1.463.818-2.97,1.563-4.405,2.433A12.223,12.223,0,0,1,12.8,29.4a.748.748,0,0,0-.238.086ZM38.385,11.561a1.306,1.306,0,0,0-.88-.436,8.192,8.192,0,0,0-4.9.7c-2.386,1.059-4.749,2.167-7.111,3.262a6.391,6.391,0,0,0-.793.449c-.187.118-.46.217-.43.479.036.309.356.341.588.391a3.516,3.516,0,0,0,2.584-.234c1.478-.835,3-1.591,4.459-2.461a11.949,11.949,0,0,1,6.484-2.146Zm-5.475,6.692a3.59,3.59,0,0,0,1.883-.911,41.387,41.387,0,0,1,4.173-2.934c.187-.11.526-.187.415-.451-.094-.236-.417-.269-.677-.223a3.477,3.477,0,0,0-.661.187,20.1,20.1,0,0,0-4.751,2.545,6.986,6.986,0,0,0-.889.825.514.514,0,0,0-.153.621A.757.757,0,0,0,32.909,18.253Zm-20.7,9.031a11.835,11.835,0,0,0,2.644-1.059A13.675,13.675,0,0,0,18.41,23.9c.238-.23.5-.507.288-.859a.773.773,0,0,0-.953-.251,3.7,3.7,0,0,0-1.34.7,44.208,44.208,0,0,1-4.476,3.144c-.138.084-.389.142-.318.359C11.683,27.246,11.949,27.254,12.211,27.284Z" transform="translate(0.002 0.002)"/><path class="b" d="M383.832,71.012c0-2.818.015-5.635-.011-8.453,0-.561.165-.737.734-.73,2.515.028,5.028,0,7.541.019a5.988,5.988,0,0,1,5.535,4.56,5.86,5.86,0,0,1-2.489,6.568c-.505.3-.535.494-.238.967,1.158,1.849,2.277,3.722,3.4,5.593.109.187.374.359.236.589-.109.187-.374.082-.571.084-.889,0-1.78-.022-2.667.013a.954.954,0,0,1-.967-.561c-1.01-1.7-2.058-3.368-3.073-5.081a.947.947,0,0,0-.971-.541c-.735.036-1.475.034-2.208,0-.492-.022-.666.137-.657.644.028,1.6-.015,3.2.022,4.8.013.561-.14.773-.719.735a18,18,0,0,0-2.131,0c-.586.036-.79-.146-.782-.762C383.853,76.644,383.832,73.837,383.832,71.012Zm3.606-3.054c0,.762.022,1.523-.009,2.285-.019.481.124.679.638.668,1.269-.03,2.539,0,3.808-.013a1.943,1.943,0,0,0,.885-.187,3.227,3.227,0,0,0,1.381-3.516,2.625,2.625,0,0,0-2.545-2.216c-1.192-.034-2.388,0-3.582-.019-.492-.011-.6.2-.584.64C387.457,66.382,387.438,67.17,387.438,67.958Z" transform="translate(-311.994 -50.258)"/><path class="c" d="M1048.6,70.987c0-2.768.03-5.537-.017-8.3-.013-.758.224-.975.945-.909a12.059,12.059,0,0,0,1.98,0c.6-.043.722.2.715.749-.028,1.982,0,3.963-.022,5.943,0,.561.163.749.734.749q3.43-.043,6.86,0c.593,0,.722-.217.717-.758-.026-1.982.009-3.963-.022-5.943,0-.573.166-.767.737-.728a13.191,13.191,0,0,0,1.98,0c.687-.056.9.157.9.876-.032,5-.017,10.006-.017,15.01,0,.61-.032,1.222,0,1.828.039.552-.187.705-.7.681a18.868,18.868,0,0,0-2.133,0c-.591.037-.788-.146-.777-.762.038-2.109,0-4.218.026-6.325,0-.586-.148-.788-.764-.778-2.287.036-4.574.03-6.86,0-.539,0-.692.168-.687.694.024,2.16,0,4.319.022,6.477,0,.537-.163.715-.693.689a21.238,21.238,0,0,0-2.21,0c-.561.032-.749-.14-.735-.724C1048.616,76.627,1048.6,73.807,1048.6,70.987Z" transform="translate(-852.354 -50.203)"/><path class="d" d="M619.951,71.007c0-2.818.015-5.638-.011-8.455,0-.561.157-.765.73-.73a19.315,19.315,0,0,0,2.208,0c.539-.028.7.172.691.7-.024,1.98,0,3.962-.021,5.941-.009.58.138.8.762.8,2.285-.034,4.572-.026,6.858,0,.53,0,.7-.165.692-.7-.026-1.954.026-3.911-.028-5.865-.021-.734.236-.915.906-.865a18.391,18.391,0,0,0,2.058,0c.447-.021.634.1.634.589q-.021,8.608,0,17.216c0,.421-.129.6-.561.582-.812-.024-1.626-.03-2.433,0-.5.019-.584-.2-.58-.638.017-2.133-.024-4.267.026-6.4.017-.709-.232-.835-.87-.825-2.184.036-4.369.039-6.549,0-.677-.013-.921.15-.9.872.047,2.081,0,4.164.028,6.246,0,.561-.137.782-.722.749a17.235,17.235,0,0,0-2.131,0c-.58.034-.788-.133-.78-.749C619.97,76.636,619.951,73.829,619.951,71.007Z" transform="translate(-503.929 -50.25)"/><path class="d" d="M478.887,79.814a9.322,9.322,0,0,1,.2-18.635c4.839.032,8.851,4.321,8.827,9.433A9.109,9.109,0,0,1,478.887,79.814Zm-5.286-9.34a7.06,7.06,0,0,0,.833,3.439,5.026,5.026,0,0,0,8.855.21,6.733,6.733,0,0,0,0-7.238,5.016,5.016,0,0,0-8.812.161A6.8,6.8,0,0,0,473.6,70.474Z" transform="translate(-382.014 -49.73)"/><path class="c" d="M722.737,70.982c0-2.794.015-5.588-.013-8.38,0-.606.129-.838.792-.833q5.524.047,11.052,0c.627,0,.8.208.749.788a8.422,8.422,0,0,0,0,1.521c.069.659-.142.878-.833.866-2.412-.043-4.828.013-7.24-.034-.749-.015-.967.219-.919.936a26.98,26.98,0,0,1,0,2.807c-.017.5.161.657.655.651,2.109-.021,4.218.011,6.325-.021.6,0,.784.159.782.771-.011,2.182.011,2.182-2.176,2.182-1.6,0-3.2.019-4.8-.011-.573,0-.818.129-.79.749.051,1.065.047,2.135,0,3.2-.026.625.165.831.807.822,2.515-.034,5.032,0,7.547-.028.647,0,.936.135.842.833-.1.749.314,1.714-.174,2.191-.453.444-1.407.129-2.139.131-3.226.013-6.454-.009-9.68.019-.631,0-.82-.168-.812-.808C722.763,76.577,722.737,73.789,722.737,70.982Z" transform="translate(-587.466 -50.21)"/><path class="d" d="M812.236,80.012c-1.806,0-1.8,0-2.448-1.731-.284-.762-.591-1.516-.85-2.285a.708.708,0,0,0-.771-.561c-1.753.017-3.507.022-5.258,0a.753.753,0,0,0-.814.61c-.4,1.151-.855,2.283-1.246,3.436a.676.676,0,0,1-.775.537c-.837-.026-1.684-.019-2.513,0-.429,0-.6-.064-.415-.561q3.335-8.674,6.63-17.357a.644.644,0,0,1,.668-.473c2.635-.129,2.639-.138,3.576,2.32,1.954,5.124,3.892,10.251,5.867,15.365.241.627.082.749-.507.7C813,79.986,812.618,80.012,812.236,80.012Zm-6.6-14.026h-.176c-.8,2.2-1.613,4.4-2.408,6.61-.146.4.2.324.4.326,1.346,0,2.693,0,4.04.011.492,0,.55-.161.391-.588-.423-1.143-.812-2.3-1.218-3.447Q806.15,67.441,805.636,65.987Z" transform="translate(-647.913 -50.058)"/><path class="d" d="M291.486,61.2c3.161.058,5.472,1.031,7.111,3.368.316.451.384.749-.187,1.076-.638.363-1.222.818-1.826,1.239-.208.146-.363.238-.545-.064a4.766,4.766,0,0,0-5.64-2.246c-2.29.541-3.408,2.283-3.849,4.463a6.6,6.6,0,0,0,1.417,5.857,5,5,0,0,0,8.077-.545c.258-.4.449-.365.78-.163a18.116,18.116,0,0,0,1.785,1.018c.629.292.574.623.249,1.123a7.7,7.7,0,0,1-4.529,3.148,8.26,8.26,0,0,1-9.149-2.7A9.2,9.2,0,0,1,283.653,66.4,8.5,8.5,0,0,1,291.486,61.2Z" transform="translate(-229.792 -49.747)"/><path class="a" d="M962.546,61.817c2.311,0,4.624.017,6.935-.013.561,0,.778.157.735.73a12.681,12.681,0,0,0,0,1.75c.037.55-.187.694-.707.685-1.422-.026-2.846.028-4.267-.024-.719-.028-.953.161-.947.917.036,4.491,0,8.992.034,13.487,0,.662-.157.911-.838.851a12.712,12.712,0,0,0-1.98,0c-.595.041-.776-.155-.773-.764.024-4.392.017-8.8.011-13.18,0-1.448.154-1.286-1.31-1.295-1.3,0-2.592-.024-3.887,0-.539.015-.719-.17-.681-.7a11.6,11.6,0,0,0,0-1.75c-.05-.6.187-.722.749-.715C957.922,61.836,960.233,61.817,962.546,61.817Z" transform="translate(-776.178 -50.233)"/><path class="d" d="M898.713,70.943c0-2.77.019-5.539-.013-8.307,0-.646.125-.936.831-.865a9.326,9.326,0,0,0,1.828,0c.749-.073.994.14.986.936-.045,4.42-.024,8.84-.021,13.26,0,1.171-.112,1.042,1.08,1.044,2.515,0,5.032.017,7.547-.011.562,0,.779.15.734.728a11.384,11.384,0,0,0,0,1.752c.041.561-.187.679-.7.676q-5.8-.024-11.587,0c-.528,0-.7-.152-.692-.689C898.726,76.632,898.713,73.78,898.713,70.943Z" transform="translate(-730.524 -50.201)"/><path class="e" d="M583.817,70.982c0,2.843-.013,5.685.011,8.528,0,.526-.144.72-.683.692-.786-.037-1.574-.022-2.36,0-.414,0-.586-.118-.586-.561q.019-8.608,0-17.216c0-.453.135-.638.608-.619.76.03,1.525.041,2.283,0,.561-.032.748.15.735.724C583.8,65.347,583.817,68.165,583.817,70.982Z" transform="translate(-471.626 -50.236)"/><path class="e" d="M585.752,36.966l-.2-.041c-1.834-.44-1.742-.406-1.089-2.165.444-1.19,1.074-1.723,2.332-1.476.481.1,1.183-.234,1.407.161.187.329-.4.8-.644,1.205-.4.674-.84,1.329-1.269,1.987C586.155,36.839,586.044,37.112,585.752,36.966Z" transform="translate(-474.745 -27.006)"/></g></g></svg>