<svg width="24" height="22" viewBox="0 0 24 22" fill="none" xmlns="http://www.w3.org/2000/svg">
<path d="M23.9999 2.86839C23.9999 2.6436 23.9915 2.4188 23.9495 2.19401C23.6972 0.890191 22.6629 0 21.3763 0C15.1282 0 8.87174 0 2.62368 0.00899183C2.32095 0.00899183 2.0014 0.0629428 1.71548 0.170845C0.588646 0.629428 0 1.55559 0 2.86839C0 7.06757 0 11.2758 0 15.4749C0 15.6997 0.00840923 15.9245 0.0504554 16.1493C0.311142 17.4711 1.34548 18.3343 2.64891 18.3343C6.7442 18.3343 10.8311 18.3343 14.9264 18.3433C15.0441 18.3433 15.1871 18.3973 15.2796 18.4782C16.5578 19.5572 17.8276 20.6362 19.089 21.7243C19.3833 21.976 19.7028 22.0929 20.056 21.9131C20.4176 21.7243 20.569 21.3916 20.569 20.9599C20.5606 20.1777 20.569 19.3864 20.569 18.6041C20.569 18.5232 20.569 18.4422 20.569 18.3433C20.7035 18.3433 20.8128 18.3433 20.9222 18.3433C21.2081 18.3343 21.5024 18.3613 21.7799 18.3163C23.0833 18.1185 24.0084 16.9136 23.9999 15.4839C23.9831 11.2757 23.9999 7.06757 23.9999 2.86839ZM19.686 12.6245C19.6103 12.8763 19.3917 13.0381 19.0469 13.0921C18.946 13.1101 18.8367 13.1191 18.7358 13.1191C14.2452 13.1191 9.75471 13.1191 5.26418 13.1191C4.79326 13.1191 4.47371 12.9752 4.34757 12.7055C4.15416 12.3098 4.50735 11.8872 5.07918 11.8422C5.16327 11.8332 5.24736 11.8422 5.33145 11.8422C7.5599 11.8422 9.78834 11.8422 12.0168 11.8422C14.2621 11.8422 16.4989 11.8422 18.7442 11.8512C18.946 11.8512 19.1815 11.8962 19.358 11.9771C19.6692 12.112 19.7617 12.3548 19.686 12.6245ZM19.686 9.18065C19.6103 9.43242 19.3917 9.59428 19.0469 9.64823C18.946 9.66621 18.8367 9.6752 18.7358 9.6752C14.2452 9.6752 9.75471 9.6752 5.26418 9.6752C4.79326 9.6752 4.47371 9.53133 4.34757 9.26158C4.15416 8.86594 4.50735 8.44332 5.07918 8.39837C5.16327 8.38937 5.24736 8.39837 5.33145 8.39837C7.5599 8.39837 9.78834 8.39837 12.0168 8.39837C14.2621 8.39837 16.4989 8.39837 18.7442 8.40736C18.946 8.40736 19.1815 8.45232 19.358 8.53324C19.6692 8.66812 19.7617 8.9109 19.686 9.18065ZM19.686 5.73678C19.6103 5.98856 19.3917 6.15041 19.0469 6.20436C18.946 6.22234 18.8367 6.23134 18.7358 6.23134C14.2452 6.23134 9.75471 6.23134 5.26418 6.23134C4.79326 6.23134 4.47371 6.08747 4.34757 5.81771C4.15416 5.42207 4.50735 4.99945 5.07918 4.9545C5.16327 4.9455 5.24736 4.9545 5.33145 4.9545C7.5599 4.9545 9.78834 4.9545 12.0168 4.9545C14.2621 4.9545 16.4989 4.9545 18.7442 4.96349C18.946 4.96349 19.1815 5.00845 19.358 5.08937C19.6692 5.21526 19.7617 5.46703 19.686 5.73678Z" fill="#C6D4EE"/>
</svg>
