<svg width="18" height="15" viewBox="0 0 18 15" fill="none" xmlns="http://www.w3.org/2000/svg">
<circle cx="1.10294" cy="5.07364" r="1.10294" fill="#263238"/>
<circle cx="1.10294" cy="9.48575" r="1.10294" fill="#263238"/>
<circle cx="1.10294" cy="13.8979" r="1.10294" fill="#263238"/>
<rect x="3.5293" y="3.9707" width="7.5" height="2.20588" rx="1.10294" fill="#263238"/>
<rect x="3.5293" y="8.38281" width="12.7941" height="2.20588" rx="1.10294" fill="#263238"/>
<rect x="3.5293" y="12.7949" width="12.7941" height="2.20588" rx="1.10294" fill="#263238"/>
<path d="M14.2165 0.230079L13.6738 2.17783L11.6917 2.76452C11.2904 3.02265 11.5265 3.31208 11.6917 3.42159L13.6266 4.00826L14.2165 5.97947C14.3816 6.3079 14.7827 6.1671 14.8536 5.97947C14.9245 5.79184 15.4671 4.00826 15.4671 4.00826L17.402 3.42159C17.8267 3.18681 17.6143 2.85828 17.402 2.76452L15.4671 2.17783C15.3413 1.70067 14.8536 0.230079 14.8536 0.230079C14.6647 -0.121833 14.3137 -0.027985 14.2165 0.230079Z" fill="#263238"/>
</svg>
