<svg width="18" height="20" viewBox="0 0 18 20" fill="none" xmlns="http://www.w3.org/2000/svg">
<rect y="4" width="14" height="16" rx="2.5" fill="#263238"/>
<path d="M12.7989 1.07405L12.7911 1.09478L12.7851 1.11612L12.269 2.96866L10.3778 3.52842L10.3093 3.5487L10.2492 3.58735C10.0884 3.69083 9.94669 3.8258 9.8607 4.00244C9.77057 4.18757 9.76141 4.37836 9.80346 4.54697C9.87869 4.84852 10.1045 5.04738 10.2434 5.1395L10.3045 5.17999L10.3746 5.20126L12.2229 5.76166L12.7878 7.64916L12.8004 7.69116L12.82 7.73033C13.0177 8.12361 13.3939 8.25592 13.719 8.21183C13.8693 8.19145 14.0103 8.13482 14.1275 8.05432C14.2405 7.97666 14.3627 7.85452 14.4277 7.68256C14.4735 7.56129 14.6473 7.00178 14.8005 6.50402C14.8793 6.24822 14.9556 5.9989 15.0122 5.81357L15.0279 5.76215L16.8778 5.20126L16.9284 5.18592L16.9747 5.16034C17.146 5.06561 17.2988 4.93643 17.3966 4.76159C17.4986 4.57899 17.5201 4.38222 17.4814 4.20246C17.411 3.87586 17.1593 3.64967 16.9348 3.5505L16.9069 3.5382L16.8778 3.52937L15.0338 2.97025C14.9482 2.68177 14.8271 2.29962 14.7183 1.96193C14.6431 1.72838 14.5722 1.51125 14.5201 1.35256L14.4578 1.16338L14.4407 1.11136L14.4361 1.09771L14.435 1.09419L14.4347 1.09328L14.4346 1.09305L14.4346 1.09298L13.96 1.25033L14.4346 1.09295L14.421 1.05194L14.4005 1.01386C14.222 0.681236 13.9014 0.468298 13.5287 0.503696C13.1875 0.536101 12.913 0.77124 12.7989 1.07405Z" fill="#263238" stroke="#F9FAFC"/>
<path d="M6.66158 13.1316C6.60991 13.1316 6.57669 13.1316 6.54717 13.1316C5.59495 13.1316 4.63905 13.1316 3.68683 13.1316C3.64623 13.1316 3.60563 13.1316 3.56873 13.1353C3.2993 13.1612 3.11107 13.4084 3.15536 13.6779C3.19596 13.9104 3.37681 14.0543 3.63885 14.0543C5.01181 14.0543 6.38846 14.0543 7.76142 14.0543C7.77988 14.0543 7.79833 14.0543 7.81678 14.0543C7.97918 14.0469 8.10466 13.9621 8.18217 13.8255C8.29658 13.6262 8.25968 13.4158 8.07514 13.2313C7.66177 12.8142 7.24472 12.4009 6.82766 11.9875C6.80183 11.9617 6.77968 11.9358 6.7723 11.9284C7.17829 11.5225 7.5732 11.1276 7.97549 10.7253C8.39993 11.1497 8.83543 11.5852 9.26725 12.0244C9.39274 12.1536 9.53668 12.2089 9.71383 12.2053C10.2822 12.2016 10.8506 12.2053 11.419 12.2053C11.4669 12.2053 11.5186 12.2016 11.5666 12.1942C11.8729 12.1462 12.0427 11.8214 11.9098 11.5446C11.8176 11.349 11.6552 11.2752 11.4448 11.2752C10.9392 11.2752 10.4372 11.2752 9.93159 11.2752C9.85777 11.2752 9.8061 11.2567 9.75443 11.2051C9.07164 10.5186 8.38516 9.83579 7.70237 9.14931C7.5732 9.01644 7.42557 8.95739 7.24103 8.95739C6.51764 8.96108 5.79425 8.96108 5.07455 8.95739C4.88633 8.95739 4.7387 9.01644 4.60583 9.14931C4.1777 9.58113 3.74588 10.0129 3.31406 10.4411C3.28823 10.4669 3.26239 10.4927 3.24025 10.5223C3.07047 10.74 3.11846 11.0537 3.34728 11.2014C3.54289 11.3269 3.77172 11.2936 3.95257 11.1165C4.34379 10.729 4.735 10.3414 5.12253 9.9502C5.17051 9.90222 5.21849 9.88377 5.28493 9.88377C5.55066 9.88746 5.82009 9.88377 6.08582 9.88377C6.11535 9.88377 6.14487 9.88377 6.19285 9.88377C6.15595 9.92437 6.13749 9.94651 6.11166 9.96866C5.79794 10.2861 5.48054 10.5998 5.16682 10.9172C5.12992 10.9578 5.08932 10.9984 5.06348 11.0427C4.94907 11.2457 4.98229 11.4487 5.16313 11.6295C5.63555 12.1019 6.10797 12.5743 6.57669 13.0467C6.60253 13.0689 6.62467 13.0947 6.66158 13.1316ZM10.1014 8.48866C10.1051 7.97565 9.69169 7.55859 9.18236 7.55859C8.66935 7.55859 8.2523 7.96458 8.24861 8.47759C8.24492 8.9943 8.65828 9.41504 9.17498 9.41504C9.68062 9.41874 10.0977 9.00168 10.1014 8.48866ZM6.0932 14.5341C6.08213 14.5267 6.07844 14.523 6.07475 14.523C5.66508 14.523 5.25909 14.523 4.84942 14.523C4.82358 14.523 4.79406 14.5378 4.77929 14.5526C4.42867 14.8995 4.07805 15.2501 3.72743 15.6007C3.62409 15.7041 3.58349 15.837 3.60932 15.9809C3.63885 16.1617 3.74219 16.2909 3.91566 16.35C4.09651 16.4127 4.26259 16.3721 4.39915 16.2356C4.94907 15.6856 5.49899 15.1357 6.04891 14.5858C6.06368 14.571 6.07844 14.5526 6.0932 14.5341Z" fill="#F9FAFC"/>
<path d="M6.66143 13.1353C6.62452 13.0947 6.60238 13.0726 6.58023 13.0504C6.10782 12.578 5.6354 12.1056 5.16668 11.6332C4.98952 11.456 4.95261 11.2494 5.06702 11.0464C5.09286 10.9984 5.13346 10.9578 5.17037 10.9209C5.48408 10.6035 5.79779 10.2898 6.1152 9.97236C6.13734 9.95021 6.15949 9.92438 6.1964 9.88747C6.14842 9.88747 6.11889 9.88747 6.08936 9.88747C5.82363 9.88747 5.5542 9.89116 5.28847 9.88747C5.22204 9.88747 5.17406 9.90593 5.12608 9.95391C4.73855 10.3451 4.34733 10.7327 3.95611 11.1202C3.77526 11.301 3.54643 11.3306 3.35082 11.2051C3.122 11.0574 3.07033 10.7437 3.24379 10.526C3.26594 10.4964 3.29177 10.4706 3.31761 10.4448C3.74943 10.013 4.18124 9.58483 4.60937 9.15301C4.74224 9.02014 4.88987 8.9574 5.0781 8.96109C5.80149 8.96478 6.52487 8.96478 7.24457 8.96109C7.42911 8.96109 7.57305 9.02014 7.70591 9.15301C8.3887 9.83949 9.07518 10.5223 9.75797 11.2088C9.80964 11.2604 9.86132 11.2826 9.93513 11.2789C10.4408 11.2752 10.9427 11.2789 11.4483 11.2789C11.655 11.2789 11.8211 11.3564 11.9134 11.5483C12.0462 11.8288 11.8765 12.1499 11.5701 12.1979C11.5222 12.2053 11.4705 12.209 11.4225 12.209C10.8541 12.209 10.2858 12.209 9.71737 12.209C9.54022 12.209 9.39628 12.1536 9.27079 12.0281C8.83898 11.5889 8.40347 11.1571 7.97903 10.729C7.57674 11.1313 7.18183 11.5262 6.77585 11.9321C6.78323 11.9395 6.80537 11.9654 6.83121 11.9912C7.24826 12.4046 7.66162 12.8216 8.07868 13.235C8.26322 13.4195 8.30013 13.6299 8.18571 13.8292C8.10452 13.9658 7.98272 14.0506 7.82033 14.058C7.80187 14.058 7.78342 14.058 7.76497 14.058C6.392 14.058 5.01535 14.058 3.64239 14.058C3.38035 14.058 3.1995 13.9141 3.15891 13.6816C3.11093 13.4158 3.29915 13.1649 3.57227 13.139C3.61287 13.1353 3.65347 13.1353 3.69037 13.1353C4.64259 13.1353 5.59849 13.1353 6.55071 13.1353C6.57654 13.1353 6.60976 13.1353 6.66143 13.1353Z" fill="#F9FAFC"/>
<path d="M10.1028 8.48869C10.0991 9.0017 9.6857 9.41507 9.17638 9.41507C8.65967 9.41507 8.25 8.99432 8.25 8.47762C8.25369 7.9646 8.66705 7.55493 9.18376 7.55862C9.69308 7.56231 10.1028 7.97567 10.1028 8.48869Z" fill="#F9FAFC"/>
<path d="M6.09268 14.5345C6.07791 14.553 6.06315 14.5714 6.04839 14.5862C5.49846 15.1361 4.94854 15.686 4.39862 16.2359C4.26206 16.3725 4.09598 16.4131 3.91513 16.3504C3.74167 16.2913 3.63832 16.1621 3.6088 15.9813C3.58296 15.8373 3.62725 15.7045 3.7269 15.6011C4.07383 15.2505 4.42445 14.8999 4.77877 14.553C4.79722 14.5345 4.82675 14.5234 4.84889 14.5234C5.25856 14.5234 5.66455 14.5234 6.07422 14.5234C6.07791 14.5234 6.08529 14.5308 6.09268 14.5345Z" fill="#F9FAFC"/>
</svg>
