<svg width="23" height="12" viewBox="0 0 23 12" fill="none" xmlns="http://www.w3.org/2000/svg">
<rect width="23" height="12" rx="2" fill="#263238"/>
<path d="M3.43645 8.95283C3.31359 8.95283 3.21014 8.91195 3.12608 8.83019C3.04203 8.74843 3 8.6478 3 8.5283V4.48113C3 4.36164 3.04203 4.26101 3.12608 4.17925C3.21014 4.09119 3.31359 4.04717 3.43645 4.04717C3.5593 4.04717 3.66275 4.09119 3.74681 4.17925C3.83733 4.26101 3.88259 4.36164 3.88259 4.48113V4.86792C4.12829 4.60377 4.3934 4.39308 4.67789 4.23585C4.96239 4.07862 5.29862 4 5.68657 4C6.04219 4 6.34932 4.08176 6.60796 4.24528C6.87306 4.40881 7.0735 4.63208 7.20928 4.91509C7.35153 5.19811 7.42266 5.50943 7.42266 5.84906V8.5283C7.42266 8.6478 7.37739 8.74843 7.28687 8.83019C7.20282 8.91195 7.09936 8.95283 6.97651 8.95283C6.85366 8.95283 6.75021 8.91195 6.66615 8.83019C6.58209 8.74843 6.54006 8.6478 6.54006 8.5283V5.9434C6.54006 5.1761 6.18444 4.79245 5.4732 4.79245C5.1499 4.79245 4.85894 4.87421 4.6003 5.03774C4.34813 5.20126 4.1089 5.42138 3.88259 5.69811V8.5283C3.88259 8.6478 3.83733 8.74843 3.74681 8.83019C3.66275 8.91195 3.5593 8.95283 3.43645 8.95283Z" fill="#ffffff"/> 
<path d="M11.1215 9C10.3327 9 9.71521 8.78302 9.26907 8.34906C8.82939 7.90881 8.60955 7.29245 8.60955 6.5C8.60955 6.05346 8.6936 5.64151 8.86172 5.26415C9.02983 4.88679 9.28846 4.58176 9.63762 4.34906C9.98678 4.11635 10.4168 4 10.9276 4C11.406 4 11.8199 4.11006 12.169 4.33019C12.5182 4.54403 12.7833 4.83333 12.9643 5.19811C13.1454 5.5566 13.2359 5.94969 13.2359 6.37736C13.2359 6.49686 13.1938 6.59748 13.1098 6.67925C13.0322 6.76101 12.9255 6.80189 12.7897 6.80189H9.50184C9.55356 7.24214 9.72168 7.58491 10.0062 7.83019C10.2907 8.07547 10.6883 8.19811 11.1991 8.19811C11.4707 8.19811 11.7067 8.17296 11.9071 8.12264C12.114 8.07233 12.3145 8 12.5085 7.90566C12.5602 7.8805 12.6184 7.86792 12.683 7.86792C12.7865 7.86792 12.877 7.90252 12.9546 7.9717C13.0322 8.04088 13.071 8.12893 13.071 8.23585C13.071 8.37421 12.9869 8.49057 12.8188 8.58491C12.5667 8.72327 12.3177 8.82704 12.072 8.89623C11.8263 8.96541 11.5095 9 11.1215 9ZM12.363 6.10377C12.3436 5.7956 12.2595 5.53774 12.1108 5.33019C11.9686 5.12264 11.7908 4.9717 11.5774 4.87736C11.364 4.77673 11.1474 4.72642 10.9276 4.72642C10.7077 4.72642 10.4911 4.77673 10.2777 4.87736C10.0644 4.9717 9.88656 5.12264 9.74431 5.33019C9.60206 5.53774 9.52123 5.7956 9.50184 6.10377H12.363Z" fill="#F9FAFC"/>
<path d="M15.8305 8.95283C15.7012 8.95283 15.5848 8.91509 15.4814 8.83962C15.3779 8.76415 15.3068 8.66981 15.268 8.5566L13.8908 4.63208C13.8714 4.57547 13.8617 4.52201 13.8617 4.4717C13.8617 4.3522 13.9037 4.25157 13.9878 4.16981C14.0718 4.08805 14.1753 4.04717 14.2981 4.04717C14.3886 4.04717 14.4695 4.07233 14.5406 4.12264C14.6182 4.16667 14.6699 4.22642 14.6958 4.30189L15.8305 7.93396L16.9556 4.38679C16.9879 4.28616 17.0461 4.2044 17.1302 4.14151C17.2207 4.07862 17.3209 4.04717 17.4308 4.04717C17.5408 4.04717 17.6377 4.07862 17.7218 4.14151C17.8123 4.2044 17.8738 4.28616 17.9061 4.38679L19.0311 7.93396L20.1659 4.30189C20.1918 4.22642 20.2403 4.16667 20.3114 4.12264C20.389 4.07233 20.473 4.04717 20.5636 4.04717C20.6864 4.04717 20.7899 4.08805 20.8739 4.16981C20.958 4.25157 21 4.3522 21 4.4717C21 4.52201 20.9903 4.57547 20.9709 4.63208L19.5937 8.5566C19.5549 8.66981 19.4838 8.76415 19.3803 8.83962C19.2768 8.91509 19.1605 8.95283 19.0311 8.95283C18.9018 8.95283 18.7854 8.91509 18.682 8.83962C18.5785 8.76415 18.5042 8.66667 18.4589 8.54717L17.4308 5.42453L16.4028 8.54717C16.3575 8.66667 16.2831 8.76415 16.1797 8.83962C16.0762 8.91509 15.9599 8.95283 15.8305 8.95283Z" fill="#F9FAFC"/>
</svg>
