<svg width="19" height="24" viewBox="0 0 19 24" fill="none" xmlns="http://www.w3.org/2000/svg">
<path d="M16.5864 0.409285C17.2746 1.01907 17.9367 1.61144 18.6074 2.20381C18.6771 2.26479 18.6336 2.37803 18.5377 2.37803H16.5167C16.4645 2.37803 16.4209 2.33448 16.4209 2.28221V0.478975C16.4296 0.391862 16.5254 0.348306 16.5864 0.409285Z" fill="#C6D4EE"/>
<path d="M18.0149 2.94441H16.5514C16.1681 2.94441 15.8545 2.63081 15.8545 2.24751V0.696903C15.8545 0.313606 15.5409 0 15.1576 0H0.696903C0.313606 0 0 0.313606 0 0.696903V22.9281C0 23.3114 0.313606 23.625 0.696903 23.625H18.0149C18.3982 23.625 18.7118 23.3114 18.7118 22.9281V3.64132C18.7118 3.25802 18.3982 2.94441 18.0149 2.94441ZM13.2847 17.4226C13.2324 17.6665 13.0931 17.8233 12.8666 17.8756C12.7969 17.893 12.7272 17.9017 12.6662 17.9017C9.73921 17.9017 6.80351 17.9017 3.87652 17.9017C3.56291 17.9017 3.36256 17.7623 3.27544 17.501C3.14477 17.1177 3.37998 16.7082 3.75456 16.6647C3.80683 16.656 3.86781 16.6647 3.92008 16.6647C5.37486 16.6647 6.82965 16.6647 8.28443 16.6647C9.74793 16.6647 11.2114 16.6647 12.6749 16.6734C12.8056 16.6734 12.9624 16.717 13.0756 16.7954C13.276 16.926 13.337 17.1612 13.2847 17.4226ZM15.4103 14.2255C15.3493 14.4694 15.1751 14.6262 14.905 14.6785C14.8266 14.6959 14.7395 14.7046 14.6611 14.7046C11.1156 14.7046 7.56139 14.7046 4.0159 14.7046C3.64132 14.7046 3.3974 14.5653 3.28415 14.3039C3.12735 13.9206 3.41482 13.5112 3.8591 13.4676C3.92879 13.4589 3.98977 13.4676 4.05946 13.4676C5.81914 13.4676 7.57882 13.4676 9.3385 13.4676C11.1069 13.4676 12.884 13.4676 14.6524 13.4764C14.8179 13.4764 15.0008 13.5199 15.1402 13.5983C15.3928 13.729 15.4712 13.9642 15.4103 14.2255ZM3.74585 10.2706C3.79812 10.2619 3.8591 10.2706 3.91137 10.2706C5.36615 10.2706 6.82093 10.2706 8.27572 10.2706C9.73921 10.2706 11.2027 10.2706 12.6662 10.2793C12.7969 10.2793 12.9537 10.3229 13.0669 10.4013C13.276 10.5407 13.337 10.7759 13.2847 11.0372C13.2324 11.2811 13.0931 11.4379 12.8666 11.4902C12.7969 11.5076 12.7272 11.5163 12.6662 11.5163C9.73921 11.5163 6.80351 11.5163 3.87652 11.5163C3.56291 11.5163 3.36256 11.3769 3.27544 11.1156C3.14477 10.7149 3.37998 10.3054 3.74585 10.2706ZM15.4103 7.83144C15.3493 8.07536 15.1751 8.23216 14.905 8.28443C14.8266 8.30185 14.7395 8.31056 14.6611 8.31056C11.1156 8.31056 7.56139 8.31056 4.0159 8.31056C3.64132 8.31056 3.3974 8.17118 3.28415 7.90985C3.12735 7.52655 3.41482 7.11712 3.8591 7.07356C3.92879 7.06485 3.98977 7.07356 4.05946 7.07356C5.81914 7.07356 7.57882 7.07356 9.3385 7.07356C11.1069 7.07356 12.884 7.07356 14.6524 7.08227C14.8179 7.08227 15.0008 7.12583 15.1402 7.20423C15.3928 7.3349 15.4712 7.57011 15.4103 7.83144Z" fill="#C6D4EE"/>
</svg>
