<svg width="15" height="15" viewBox="0 0 15 15" fill="none" xmlns="http://www.w3.org/2000/svg">
<path d="M1.0703 9.72656C1.31913 9.19299 1.52166 8.51441 1.45801 8.44482C1.13974 8.09103 0.821465 7.73145 0.595782 7.30227C-0.1102 5.99732 -0.202788 4.65178 0.393246 3.27724C0.942987 2.01869 1.8978 1.15453 3.12459 0.591952C4.32823 0.040976 5.58974 -0.115617 6.89754 0.0815742C8.04332 0.255567 9.07336 0.696348 9.95873 1.45032C10.9135 2.26228 11.5327 3.27144 11.6832 4.53578C11.851 5.96832 11.3938 7.20367 10.4217 8.25343C9.46107 9.28578 8.25743 9.85996 6.8744 10.0745C5.57238 10.2717 4.31087 10.1093 3.10723 9.55257C2.88733 9.45397 2.67901 9.33798 2.4649 9.21618C2.08876 9.54097 1.60846 9.74396 1.0703 9.72656ZM5.8675 2.49427C5.71705 2.50007 5.63025 2.58707 5.57817 2.72626C5.42771 3.10905 5.27147 3.49763 5.10944 3.88041C5.09208 3.92681 5.01685 3.97901 4.97056 3.98481C4.57127 4.01961 4.17199 4.04281 3.7727 4.0718C3.62225 4.0834 3.48337 4.1124 3.4255 4.2748C3.37342 4.41979 3.41971 4.53578 3.57595 4.66338C3.87687 4.91857 4.17778 5.17376 4.48447 5.42315C4.55391 5.48114 4.58285 5.52754 4.55391 5.63194C4.44397 6.03792 4.35138 6.4439 4.253 6.84989C4.24143 6.90208 4.23564 6.96588 4.24722 7.01808C4.2993 7.22687 4.50762 7.29647 4.72173 7.16307C5.07472 6.94848 5.42193 6.73389 5.76913 6.5135C5.84436 6.4671 5.90223 6.4671 5.97745 6.5135C6.33044 6.73389 6.68343 6.94848 7.03643 7.16307C7.15795 7.23847 7.27947 7.26167 7.40099 7.16887C7.51094 7.08188 7.53987 6.96588 7.50515 6.83249C7.49937 6.80349 7.49358 6.77449 7.48201 6.74549C7.38942 6.36851 7.30262 5.99732 7.20424 5.62614C7.17531 5.52754 7.20424 5.47534 7.27368 5.41735C7.58038 5.16796 7.88129 4.91277 8.1822 4.65758C8.29794 4.55898 8.39631 4.45459 8.33844 4.2864C8.29215 4.1356 8.19378 4.0776 7.98545 4.066C7.59195 4.04281 7.19846 4.00801 6.80496 3.99061C6.70658 3.98481 6.66607 3.94421 6.63135 3.85721C6.4809 3.47443 6.32466 3.09745 6.1742 2.71466C6.11055 2.58707 6.02375 2.50007 5.8675 2.49427Z" fill="#263238"/>
<path d="M14.3592 11.2161C15.0675 9.90401 15.1604 8.55711 14.5624 7.18119C14.0515 6.00266 13.1749 5.17246 12.0544 4.60352C12.066 4.66157 12.0718 4.72543 12.0834 4.78349C12.2634 6.30455 11.7757 7.6108 10.7423 8.71967C9.72055 9.81692 8.44332 10.4207 6.97451 10.6471C5.73792 10.8387 4.53617 10.7168 3.38086 10.2698C3.58986 10.9548 3.96722 11.5818 4.49553 12.1566C5.45926 13.19 6.66682 13.7647 8.05435 13.9795C9.3606 14.1769 10.6262 14.0144 11.8338 13.457C12.0544 13.3583 12.2634 13.2422 12.4782 13.1203C12.8556 13.4512 13.3374 13.6544 13.8773 13.637C13.6277 13.1029 13.4245 12.4236 13.4884 12.354C13.8135 11.9998 14.1328 11.6457 14.3592 11.2161Z" fill="#263238"/>
</svg>
