<svg width="14" height="18" viewBox="0 0 14 18" fill="none" xmlns="http://www.w3.org/2000/svg">
<path d="M6.21235 0C7.60879 0.765441 8.85989 1.64023 9.88984 2.79447C10.9514 3.97908 11.6528 5.33378 11.9813 6.85859C12.2088 7.90955 12.2214 8.97874 12.0824 10.0479C11.9434 11.1171 11.6528 12.1377 11.2041 13.1279C11.1915 13.1522 11.1915 13.1704 11.1978 13.2008C12.6511 12.1863 13.1313 10.7465 13.1566 9.05771C13.2577 9.30071 13.3525 9.50118 13.4283 9.7138C13.7 10.4367 13.9149 11.1779 13.978 11.9494C14.0981 13.4013 13.7316 14.7074 12.7333 15.8313C11.7602 16.9187 10.5154 17.5748 9.10632 17.9939C9.09368 18 9.07473 17.9939 9.03681 17.9939C9.54863 17.1981 9.84561 16.3537 9.70028 15.4121C9.55495 14.4826 9.06841 13.7354 8.32912 13.0672C8.43022 13.5471 8.3228 13.9602 8.10796 14.3429C7.93736 14.6466 7.72884 14.9382 7.52032 15.2238C7.35604 15.4425 7.16648 15.6369 6.97691 15.8495C6.19339 15.2541 5.5552 14.5798 5.27086 13.6504C4.98652 12.7209 5.13817 11.834 5.57416 10.9409C5.16976 11.1657 4.82223 11.4026 4.51262 11.6942C3.84915 12.3199 3.44475 13.0672 3.34997 13.9602C3.28679 14.5555 3.36893 15.1387 3.54585 15.7158C3.77333 16.4752 4.12718 17.1799 4.58212 17.836C4.61372 17.8785 4.63899 17.9271 4.67058 17.9696C4.66427 17.9818 4.65163 17.9939 4.64531 18C4.19668 17.757 3.74173 17.5322 3.30574 17.271C2.4148 16.7425 1.61865 16.1107 1.00573 15.2845C0.266443 14.2882 -0.0747677 13.1826 0.0136942 11.9555C0.108475 10.6129 0.626609 9.41006 1.32799 8.27405C2.15574 6.92541 3.20464 5.75903 4.41152 4.71414C4.8791 4.3132 5.32141 3.88795 5.67526 3.38373C6.14916 2.72157 6.44614 1.99258 6.4651 1.17854C6.47142 0.832265 6.39559 0.498144 6.27554 0.170098C6.25658 0.127573 6.23763 0.078974 6.21235 0Z" fill="#263238"/>
</svg>
